<?xml version="1.0" standalone="no"?><!DOCTYPE svg PUBLIC "-//W3C//DTD SVG 1.1//EN" "http://www.w3.org/Graphics/SVG/1.1/DTD/svg11.dtd"><svg t="1636372553567" class="icon" viewBox="0 0 1076 1024" version="1.1" xmlns="http://www.w3.org/2000/svg" p-id="4913" xmlns:xlink="http://www.w3.org/1999/xlink" width="134.5" height="128"><defs><style type="text/css"></style></defs><path d="M859.189822 1022.721598c-5.113608 0-7.670412 0-12.78402-2.556804L677.656739 920.449438c-12.78402-7.670412-15.340824-23.011236-10.227216-35.795256 7.670412-12.78402 23.011236-15.340824 35.795256-10.227216l122.726591 71.590512-46.022472-324.714107c0-7.670412 2.556804-15.340824 7.670412-20.454432l201.987516-204.54432-294.032459-23.011236c-7.670412 0-17.897628-5.113608-20.454432-12.78402L537.032519 81.817728l-138.067416 278.691635c-5.113608 7.670412-12.78402 12.78402-20.454432 15.340824l-296.589263 23.011236 201.987515 204.54432c5.113608 5.113608 7.670412 12.78402 7.670412 20.454432L248.113668 948.574282l276.134831-161.078652c12.78402-7.670412 28.124844-2.556804 35.795256 10.227216 7.670412 12.78402 2.556804 28.124844-10.227216 35.795256L227.659236 1020.164794c-7.670412 5.113608-17.897628 5.113608-28.124844 0-7.670412-5.113608-12.78402-15.340824-10.227216-25.56804l51.13608-365.622971-232.669164-232.669164c-7.670412-7.670412-10.227216-17.897628-5.113608-28.124844 2.556804-10.227216 12.78402-15.340824 23.011236-15.340824l334.941323-25.56804 153.40824-311.930087c2.556804-10.227216 12.78402-15.340824 20.454432-15.340824 10.227216 0 17.897628 5.113608 23.011236 15.340824L716.008799 324.714107l334.941323 25.56804c10.227216 0 17.897628 7.670412 23.011236 15.340824 2.556804 10.227216 0 20.454432-5.113608 28.124844l-232.669164 232.669164 51.13608 365.622971c2.556804 10.227216-2.556804 20.454432-10.227216 25.56804-7.670412 2.556804-12.78402 5.113608-17.897628 5.113608" p-id="4914"></path></svg>