<?xml version="1.0" standalone="no"?><!DOCTYPE svg PUBLIC "-//W3C//DTD SVG 1.1//EN" "http://www.w3.org/Graphics/SVG/1.1/DTD/svg11.dtd"><svg t="1639033291601" class="icon" viewBox="0 0 1024 1024" version="1.1" xmlns="http://www.w3.org/2000/svg" p-id="2895" xmlns:xlink="http://www.w3.org/1999/xlink" width="128" height="128"><defs><style type="text/css"></style></defs><path d="M927.817143 456.594286l-82.651429-82.651429v-116.845714a78.445714 78.445714 0 0 0-78.445714-78.445714h-116.845714l-82.651429-82.651429c-30.537143-30.537143-80.274286-30.537143-110.994286 0l-82.651428 82.651429h-116.845714a78.445714 78.445714 0 0 0-78.445715 78.445714v116.845714l-82.651428 82.651429c-30.537143 30.537143-30.537143 80.274286 0 110.994285l82.651428 82.651429v116.845714a78.445714 78.445714 0 0 0 78.445715 78.445715h116.845714l82.651428 82.651428c30.537143 30.537143 80.274286 30.537143 110.994286 0l82.651429-82.651428h116.845714a78.445714 78.445714 0 0 0 78.445714-78.445715v-116.845714l82.651429-82.651429a78.354286 78.354286 0 0 0 0-110.994285z m-214.125714-22.491429L458.971429 649.691429c-7.131429 6.034286-16.091429 9.325714-25.417143 9.325714-1.097143 0-2.194286 0-3.474286-0.182857-10.422857-0.914286-20.114286-5.851429-26.697143-13.897143l-98.011428-117.577143c-13.897143-16.64-11.702857-41.325714 4.937142-55.222857 16.64-13.897143 41.325714-11.52 55.222858 4.937143l72.777142 87.222857 224.731429-190.171429c16.64-13.897143 41.325714-11.885714 55.222857 4.571429 14.08 16.64 12.068571 41.508571-4.571428 55.405714z" p-id="2896" fill="#f4ea2a"></path></svg>