<?xml version="1.0" standalone="no"?><!DOCTYPE svg PUBLIC "-//W3C//DTD SVG 1.1//EN" "http://www.w3.org/Graphics/SVG/1.1/DTD/svg11.dtd"><svg t="1634820326446" class="icon" viewBox="0 0 1024 1024" version="1.1" xmlns="http://www.w3.org/2000/svg" p-id="5121" xmlns:xlink="http://www.w3.org/1999/xlink" width="128" height="128"><defs><style type="text/css"></style></defs><path d="M794.102 819.99C759.68 852.247 713.397 872 662.5 872 556.185 872 470 785.815 470 679.5S556.185 487 662.5 487 855 573.185 855 679.5c0 23.663-4.27 46.328-12.08 67.268l99.814 67.842c20.098 13.66 25.316 41.026 11.656 61.124-13.66 20.098-41.026 25.316-61.124 11.656l-99.164-67.4zM84 147c-24.3 0-44-19.7-44-44s19.7-44 44-44h834c24.3 0 44 19.7 44 44s-19.7 44-44 44H84z m0 498.5c-24.3 0-44-19.7-44-44s19.7-44 44-44h251c24.3 0 44 19.7 44 44s-19.7 44-44 44H84z m0-249c-24.3 0-44-19.7-44-44s19.7-44 44-44h834c24.3 0 44 19.7 44 44s-19.7 44-44 44H84z m0 499c-24.3 0-44-19.7-44-44s19.7-44 44-44h251c24.3 0 44 19.7 44 44s-19.7 44-44 44H84zM662.5 784c57.714 0 104.5-46.786 104.5-104.5S720.214 575 662.5 575 558 621.786 558 679.5 604.786 784 662.5 784z" p-id="5122" ></path></svg>